<svg id="visual" viewBox="0 0 960 540" width="960" height="540" xmlns="http://www.w3.org/2000/svg" xmlns:xlink="http://www.w3.org/1999/xlink" version="1.1"><path d="M0 39L14.5 42.5C29 46 58 53 87.2 58.3C116.3 63.7 145.7 67.3 174.8 70.2C204 73 233 75 262 69.7C291 64.3 320 51.7 349 51.7C378 51.7 407 64.3 436.2 63.3C465.3 62.3 494.7 47.7 523.8 44.8C553 42 582 51 611 56.5C640 62 669 64 698 63.2C727 62.3 756 58.7 785.2 62.2C814.3 65.7 843.7 76.3 872.8 75.5C902 74.7 931 62.3 945.5 56.2L960 50L960 0L945.5 0C931 0 902 0 872.8 0C843.7 0 814.3 0 785.2 0C756 0 727 0 698 0C669 0 640 0 611 0C582 0 553 0 523.8 0C494.7 0 465.3 0 436.2 0C407 0 378 0 349 0C320 0 291 0 262 0C233 0 204 0 174.8 0C145.7 0 116.3 0 87.2 0C58 0 29 0 14.5 0L0 0Z" fill="#bce0d3"></path><path d="M0 131L14.5 128.2C29 125.3 58 119.7 87.2 117.8C116.3 116 145.7 118 174.8 120.8C204 123.7 233 127.3 262 126.3C291 125.3 320 119.7 349 124.2C378 128.7 407 143.3 436.2 147.8C465.3 152.3 494.7 146.7 523.8 144.8C553 143 582 145 611 150.5C640 156 669 165 698 156C727 147 756 120 785.2 111.8C814.3 103.7 843.7 114.3 872.8 125.2C902 136 931 147 945.5 152.5L960 158L960 48L945.5 54.2C931 60.3 902 72.7 872.8 73.5C843.7 74.3 814.3 63.7 785.2 60.2C756 56.7 727 60.3 698 61.2C669 62 640 60 611 54.5C582 49 553 40 523.8 42.8C494.7 45.7 465.3 60.3 436.2 61.3C407 62.3 378 49.7 349 49.7C320 49.7 291 62.3 262 67.7C233 73 204 71 174.8 68.2C145.7 65.3 116.3 61.7 87.2 56.3C58 51 29 44 14.5 40.5L0 37Z" fill="#add9c9"></path><path d="M0 298L14.5 290.8C29 283.7 58 269.3 87.2 273.8C116.3 278.3 145.7 301.7 174.8 295.3C204 289 233 253 262 252.2C291 251.3 320 285.7 349 310C378 334.3 407 348.7 436.2 353.2C465.3 357.7 494.7 352.3 523.8 345.2C553 338 582 329 611 332.5C640 336 669 352 698 358.2C727 364.3 756 360.7 785.2 340.8C814.3 321 843.7 285 872.8 268.8C902 252.7 931 256.3 945.5 258.2L960 260L960 156L945.5 150.5C931 145 902 134 872.8 123.2C843.7 112.3 814.3 101.7 785.2 109.8C756 118 727 145 698 154C669 163 640 154 611 148.5C582 143 553 141 523.8 142.8C494.7 144.7 465.3 150.3 436.2 145.8C407 141.3 378 126.7 349 122.2C320 117.7 291 123.3 262 124.3C233 125.3 204 121.7 174.8 118.8C145.7 116 116.3 114 87.2 115.8C58 117.7 29 123.3 14.5 126.2L0 129Z" fill="#9ed2be"></path><path d="M0 444L14.5 435C29 426 58 408 87.2 401.7C116.3 395.3 145.7 400.7 174.8 411.5C204 422.3 233 438.7 262 447.7C291 456.7 320 458.3 349 454.7C378 451 407 442 436.2 436.7C465.3 431.3 494.7 429.7 523.8 437.8C553 446 582 464 611 472C640 480 669 478 698 476.2C727 474.3 756 472.7 785.2 473.7C814.3 474.7 843.7 478.3 872.8 475.7C902 473 931 464 945.5 459.5L960 455L960 258L945.5 256.2C931 254.3 902 250.7 872.8 266.8C843.7 283 814.3 319 785.2 338.8C756 358.7 727 362.3 698 356.2C669 350 640 334 611 330.5C582 327 553 336 523.8 343.2C494.7 350.3 465.3 355.7 436.2 351.2C407 346.7 378 332.3 349 308C320 283.7 291 249.3 262 250.2C233 251 204 287 174.8 293.3C145.7 299.7 116.3 276.3 87.2 271.8C58 267.3 29 281.7 14.5 288.8L0 296Z" fill="#8dc3ae"></path><path d="M0 541L14.5 541C29 541 58 541 87.2 541C116.3 541 145.7 541 174.8 541C204 541 233 541 262 541C291 541 320 541 349 541C378 541 407 541 436.2 541C465.3 541 494.7 541 523.8 541C553 541 582 541 611 541C640 541 669 541 698 541C727 541 756 541 785.2 541C814.3 541 843.7 541 872.8 541C902 541 931 541 945.5 541L960 541L960 453L945.5 457.5C931 462 902 471 872.8 473.7C843.7 476.3 814.3 472.7 785.2 471.7C756 470.7 727 472.3 698 474.2C669 476 640 478 611 470C582 462 553 444 523.8 435.8C494.7 427.7 465.3 429.3 436.2 434.7C407 440 378 449 349 452.7C320 456.3 291 454.7 262 445.7C233 436.7 204 420.3 174.8 409.5C145.7 398.7 116.3 393.3 87.2 399.7C58 406 29 424 14.5 433L0 442Z" fill="#7cb59f"></path></svg>